<svg width="168" height="40" viewBox="0 0 168 40" fill="none" xmlns="http://www.w3.org/2000/svg">
<path d="M146.378 8.46445V6.62435H152.126C152.18 6.69984 152.234 6.82251 152.289 6.99237C152.343 7.14335 152.37 7.32264 152.37 7.53024C152.37 7.83221 152.298 8.06812 152.153 8.23797C152.008 8.38895 151.801 8.46445 151.529 8.46445H146.378ZM146.757 4.84087V8.15304H144.615V4.72763C144.615 3.61414 144.805 2.71768 145.185 2.03826C145.582 1.33997 146.143 0.830403 146.866 0.509566C147.607 0.169856 148.484 0 149.496 0C150.526 0 151.331 0.141546 151.909 0.424638C152.505 0.70773 152.804 1.05688 152.804 1.47208C152.804 1.67968 152.759 1.86841 152.668 2.03826C152.596 2.20812 152.487 2.36853 152.343 2.51952C152.017 2.33079 151.611 2.17981 151.123 2.06657C150.635 1.93446 150.165 1.86841 149.713 1.86841C148.61 1.86841 147.842 2.10432 147.408 2.57614C146.974 3.04796 146.757 3.80287 146.757 4.84087ZM144.615 6.90744H146.784V18.9105C146.694 18.9483 146.558 18.986 146.378 19.0238C146.197 19.0804 145.998 19.1087 145.781 19.1087C145.402 19.1087 145.112 19.0332 144.913 18.8822C144.715 18.7124 144.615 18.4481 144.615 18.0896V6.90744Z" fill="#E69270"/>
<path d="M137.831 1.75514C137.831 1.35882 137.967 1.02854 138.238 0.764323C138.509 0.481231 138.843 0.339685 139.241 0.339685C139.657 0.339685 139.991 0.481231 140.244 0.764323C140.497 1.02854 140.624 1.35882 140.624 1.75514C140.624 2.15147 140.497 2.49118 140.244 2.77428C139.991 3.03849 139.657 3.1706 139.241 3.1706C138.843 3.1706 138.509 3.03849 138.238 2.77428C137.967 2.49118 137.831 2.15147 137.831 1.75514ZM138.156 11.4935H140.326V18.9105C140.235 18.9483 140.1 18.986 139.919 19.0237C139.738 19.0804 139.539 19.1087 139.322 19.1087C138.943 19.1087 138.654 19.0332 138.455 18.8822C138.256 18.7123 138.156 18.4481 138.156 18.0895V11.4935ZM140.326 12.5976H138.156V5.9449C138.247 5.90716 138.382 5.86941 138.563 5.83167C138.762 5.77505 138.97 5.74674 139.187 5.74674C139.566 5.74674 139.847 5.83167 140.027 6.00152C140.226 6.1525 140.326 6.41672 140.326 6.79418V12.5976Z" fill="#E69270"/>
<path d="M124.817 8.91733H127.04V18.7406L126.01 18.9671C125.666 18.9671 125.377 18.8539 125.142 18.6274C124.925 18.382 124.817 18.0801 124.817 17.7215V8.91733ZM126.01 18.9671V16.9855H134.822C134.912 17.0609 134.985 17.1836 135.039 17.3535C135.093 17.5233 135.12 17.7121 135.12 17.9197C135.12 18.2405 135.039 18.4953 134.876 18.684C134.714 18.8727 134.497 18.9671 134.226 18.9671H126.01ZM127.04 10.6159H124.817V1.81173C124.907 1.77398 125.043 1.73624 125.224 1.69849C125.422 1.64187 125.63 1.61357 125.847 1.61357C126.245 1.61357 126.543 1.69849 126.742 1.86835C126.941 2.01933 127.04 2.28355 127.04 2.661V10.6159Z" fill="#E69270"/>
<path d="M107.146 9.22882C106.821 10.4178 106.468 11.6068 106.089 12.7958C105.727 13.9848 105.375 15.0983 105.031 16.1363C104.688 17.1743 104.371 18.0707 104.082 18.8256C103.938 18.92 103.775 18.9955 103.594 19.0521C103.413 19.1087 103.169 19.137 102.862 19.137C102.573 19.137 102.302 19.0804 102.049 18.9672C101.814 18.8728 101.651 18.7124 101.561 18.4859C101.38 18.1085 101.172 17.5612 100.937 16.844C100.72 16.1268 100.485 15.3059 100.232 14.3811C99.997 13.4563 99.753 12.5032 99.4999 11.5219C99.2469 10.5216 99.0119 9.55909 98.795 8.63433C98.5961 7.70956 98.4244 6.88859 98.2798 6.17143C98.4063 6.03932 98.56 5.91664 98.7407 5.80341C98.9396 5.69017 99.1746 5.63355 99.4457 5.63355C99.7891 5.63355 100.042 5.73735 100.205 5.94495C100.386 6.13368 100.512 6.44508 100.585 6.87916C100.747 7.67181 100.928 8.56827 101.127 9.56853C101.344 10.5688 101.561 11.5596 101.778 12.541C102.013 13.5224 102.22 14.4094 102.401 15.2021C102.6 15.9758 102.745 16.5515 102.835 16.9289H102.943C103.088 16.476 103.314 15.7399 103.621 14.7208C103.929 13.6828 104.29 12.5032 104.706 11.1822C105.14 9.86106 105.574 8.52109 106.007 7.16225C106.152 7.06788 106.324 7.00183 106.523 6.96408C106.721 6.90747 106.938 6.87916 107.173 6.87916C107.499 6.87916 107.77 6.94521 107.987 7.07732C108.204 7.19056 108.348 7.36985 108.421 7.61519C108.854 8.91742 109.261 10.2008 109.641 11.4652C110.02 12.7108 110.355 13.8243 110.644 14.8057C110.933 15.7682 111.141 16.4854 111.268 16.9572H111.403C111.819 15.2775 112.271 13.4752 112.759 11.5502C113.247 9.62515 113.645 7.73787 113.952 5.88834C114.205 5.71848 114.512 5.63355 114.874 5.63355C115.181 5.63355 115.425 5.70904 115.606 5.86003C115.787 6.01101 115.877 6.24692 115.877 6.56776C115.877 6.77536 115.814 7.17168 115.687 7.75674C115.579 8.3418 115.425 9.03065 115.226 9.82331C115.027 10.616 114.801 11.4652 114.548 12.3711C114.313 13.2582 114.069 14.1263 113.816 14.9756C113.563 15.806 113.319 16.5609 113.084 17.2403C112.867 17.9197 112.677 18.4482 112.515 18.8256C112.424 18.9011 112.271 18.9672 112.054 19.0238C111.855 19.0993 111.62 19.137 111.349 19.137C110.608 19.137 110.174 18.9577 110.047 18.5992C109.794 17.9197 109.505 17.0799 109.18 16.0796C108.854 15.0605 108.52 13.9659 108.176 12.7958C107.833 11.6068 107.49 10.4178 107.146 9.22882Z" fill="#E69270"/>
<path d="M90.3845 17.4949C91.1437 17.4949 91.7673 17.4194 92.2554 17.2684C92.7615 17.0985 93.123 16.9381 93.3399 16.7871V12.6823L89.9778 13.0503C89.0378 13.1258 88.3419 13.3428 87.89 13.7014C87.4381 14.06 87.2121 14.579 87.2121 15.2584C87.2121 15.9567 87.4742 16.504 87.9984 16.9004C88.5407 17.2967 89.3361 17.4949 90.3845 17.4949ZM90.3574 5.52007C91.93 5.52007 93.1772 5.88809 94.0991 6.62413C95.021 7.36017 95.482 8.52084 95.482 10.1062V16.8154C95.482 17.2306 95.4006 17.5515 95.2379 17.7779C95.0933 17.9855 94.8674 18.1837 94.5601 18.3724C94.1262 18.6178 93.5478 18.8443 92.8248 19.0519C92.1017 19.2595 91.2883 19.3633 90.3845 19.3633C88.6853 19.3633 87.3658 19.0141 86.4258 18.3158C85.5039 17.6175 85.043 16.6078 85.043 15.2867C85.043 14.06 85.4316 13.1258 86.2089 12.4841C87.0042 11.8236 88.0978 11.4273 89.4897 11.2951L93.3399 10.8988V10.1062C93.3399 9.16252 93.0688 8.47366 92.5265 8.03959C91.9842 7.60551 91.2521 7.38847 90.3303 7.38847C89.5891 7.38847 88.8751 7.50171 88.1882 7.72818C87.5194 7.95466 86.9229 8.20944 86.3987 8.49253C86.2541 8.36042 86.1185 8.20944 85.992 8.03959C85.8835 7.85086 85.8293 7.66213 85.8293 7.4734C85.8293 6.98271 86.0914 6.60525 86.6156 6.34104C87.1036 6.07682 87.664 5.87865 88.2967 5.74654C88.9474 5.59556 89.6343 5.52007 90.3574 5.52007Z" fill="#E69270"/>
<path d="M73.3672 10.8991H75.9972C77.4433 10.8991 78.5641 10.5877 79.3594 9.96491C80.1548 9.32324 80.5524 8.36073 80.5524 7.07738C80.5524 5.79403 80.1638 4.85982 79.3865 4.27477C78.6273 3.67084 77.5337 3.36888 76.1057 3.36888C75.6176 3.36888 75.1296 3.39718 74.6415 3.4538C74.1715 3.49155 73.7468 3.54817 73.3672 3.62366V10.8991ZM76.1328 12.8241H71.1709V3.00086C71.1709 2.69889 71.2432 2.47242 71.3878 2.32144C71.5505 2.15158 71.7765 2.01947 72.0657 1.92511C72.5899 1.75525 73.2225 1.63258 73.9637 1.55709C74.7229 1.4816 75.455 1.44385 76.1599 1.44385C78.4556 1.44385 80.1276 1.95342 81.1761 2.97255C82.2426 3.9728 82.7758 5.33164 82.7758 7.04907C82.7758 8.21918 82.5318 9.23831 82.0437 10.1065C81.5737 10.9746 80.8507 11.6446 79.8746 12.1164C78.8985 12.5882 77.6512 12.8241 76.1328 12.8241ZM71.1709 11.7201H73.3943V18.9106C73.2858 18.9484 73.1412 18.9861 72.9604 19.0239C72.7797 19.0805 72.5808 19.1088 72.3639 19.1088C71.9663 19.1088 71.668 19.0239 71.4692 18.854C71.2703 18.6841 71.1709 18.4199 71.1709 18.0613V11.7201Z" fill="#E69270"/>
<path d="M60.73 11.4936H62.8991V15.4002C62.8991 16.1552 63.107 16.693 63.5228 17.0139C63.9385 17.3158 64.5079 17.4668 65.2309 17.4668C65.5382 17.4668 65.8817 17.4102 66.2613 17.297C66.6409 17.1837 66.9572 17.0516 67.2103 16.9006C67.3187 17.0139 67.4182 17.1554 67.5085 17.3253C67.5989 17.4951 67.6441 17.6933 67.6441 17.9198C67.6441 18.335 67.4091 18.6747 66.9391 18.9389C66.4692 19.2031 65.8184 19.3352 64.9869 19.3352C63.7216 19.3352 62.6912 19.0427 61.8959 18.4576C61.1186 17.8726 60.73 16.9006 60.73 15.5418V11.4936ZM61.8417 8.03986V6.17145H67.3459C67.4001 6.24694 67.4543 6.36962 67.5085 6.53947C67.5628 6.70933 67.5899 6.88862 67.5899 7.07735C67.5899 7.37931 67.5176 7.61522 67.373 7.78508C67.2284 7.95493 67.0295 8.03986 66.7765 8.03986H61.8417ZM62.8991 12.3429H60.73V2.09493C60.8204 2.05718 60.9559 2.01944 61.1367 1.98169C61.3355 1.92508 61.5434 1.89676 61.7603 1.89676C62.1399 1.89676 62.4201 1.98169 62.6009 2.15155C62.7997 2.30253 62.8991 2.55731 62.8991 2.9159V12.3429Z" fill="#E69270"/>
<path d="M52.5187 8.32268V12.7955H50.3496V8.49253C50.3496 8.05846 50.4219 7.71875 50.5665 7.4734C50.7292 7.20918 50.9913 6.9544 51.3528 6.70905C51.8228 6.38822 52.4645 6.11456 53.278 5.88809C54.0914 5.64274 54.9952 5.52007 55.9894 5.52007C57.4355 5.52007 58.1585 5.89752 58.1585 6.65244C58.1585 6.84116 58.1314 7.02046 58.0772 7.19031C58.0229 7.34129 57.9506 7.4734 57.8603 7.58664C57.6795 7.54889 57.4445 7.51115 57.1553 7.4734C56.8661 7.43566 56.5769 7.41678 56.2876 7.41678C55.4561 7.41678 54.724 7.51115 54.0914 7.69987C53.4587 7.86973 52.9345 8.07733 52.5187 8.32268ZM50.3496 11.4933L52.5187 11.833V18.9103C52.4284 18.9481 52.2928 18.9858 52.112 19.0235C51.9313 19.0802 51.7324 19.1085 51.5155 19.1085C51.1359 19.1085 50.8467 19.033 50.6479 18.882C50.449 18.7121 50.3496 18.4479 50.3496 18.0893V11.4933Z" fill="#E69270"/>
<path d="M41.2927 17.4949C42.0519 17.4949 42.6755 17.4194 43.1636 17.2684C43.6697 17.0985 44.0312 16.9381 44.2481 16.7871V12.6823L40.886 13.0503C39.946 13.1258 39.2501 13.3428 38.7982 13.7014C38.3463 14.06 38.1203 14.579 38.1203 15.2584C38.1203 15.9567 38.3824 16.504 38.9066 16.9004C39.4489 17.2967 40.2443 17.4949 41.2927 17.4949ZM41.2656 5.52007C42.8382 5.52007 44.0855 5.88809 45.0073 6.62413C45.9292 7.36017 46.3902 8.52084 46.3902 10.1062V16.8154C46.3902 17.2306 46.3088 17.5515 46.1461 17.7779C46.0015 17.9855 45.7756 18.1837 45.4683 18.3724C45.0345 18.6178 44.456 18.8443 43.733 19.0519C43.0099 19.2595 42.1965 19.3633 41.2927 19.3633C39.5935 19.3633 38.274 19.0141 37.334 18.3158C36.4121 17.6175 35.9512 16.6078 35.9512 15.2867C35.9512 14.06 36.3398 13.1258 37.1171 12.4841C37.9124 11.8236 39.006 11.4273 40.3979 11.2951L44.2481 10.8988V10.1062C44.2481 9.16252 43.977 8.47366 43.4347 8.03959C42.8924 7.60551 42.1603 7.38847 41.2385 7.38847C40.4973 7.38847 39.7833 7.50171 39.0964 7.72818C38.4276 7.95466 37.8311 8.20944 37.3069 8.49253C37.1623 8.36042 37.0267 8.20944 36.9002 8.03959C36.7917 7.85086 36.7375 7.66213 36.7375 7.4734C36.7375 6.98271 36.9996 6.60525 37.5238 6.34104C38.0119 6.07682 38.5722 5.87865 39.2049 5.74654C39.8556 5.59556 40.5425 5.52007 41.2656 5.52007Z" fill="#E69270"/>
<path d="M24.7962 9.90799V13.1635H22.6271V10.0778C22.6271 9.15308 22.365 8.47366 21.8408 8.03959C21.3347 7.60551 20.6568 7.38847 19.8072 7.38847C19.2469 7.38847 18.7046 7.48284 18.1804 7.67157C17.6561 7.86029 17.2133 8.07733 16.8518 8.32268V13.1635H14.6826V8.43591C14.6826 8.05846 14.7549 7.73762 14.8995 7.4734C15.0622 7.20918 15.3334 6.9544 15.713 6.70905C16.201 6.38822 16.8156 6.11456 17.5567 5.88809C18.3159 5.64274 19.0751 5.52007 19.8343 5.52007C20.7562 5.52007 21.5696 5.67105 22.2746 5.97302C22.9796 6.25611 23.5038 6.65244 23.8472 7.162C23.9557 7.27524 24.0461 7.37904 24.1184 7.4734C24.1907 7.56777 24.263 7.69044 24.3353 7.84142C24.4618 8.06789 24.5703 8.36042 24.6607 8.71901C24.751 9.07759 24.7962 9.47392 24.7962 9.90799ZM32.7407 9.96461V13.1635H30.5716V10.0778C30.5716 9.15308 30.3185 8.47366 29.8124 8.03959C29.3062 7.60551 28.6284 7.38847 27.7788 7.38847C27.1461 7.38847 26.5316 7.53002 25.935 7.81311C25.3566 8.07733 24.8324 8.46422 24.3624 8.97379L23.4948 7.33186C23.9647 6.84116 24.5793 6.41653 25.3385 6.05794C26.0977 5.69936 26.9654 5.52007 27.9415 5.52007C28.9176 5.52007 29.7581 5.68049 30.4631 6.00132C31.1862 6.32216 31.7465 6.81285 32.1442 7.4734C32.5419 8.13395 32.7407 8.96435 32.7407 9.96461ZM14.6826 11.6632H16.8518V18.9103C16.7614 18.9481 16.6258 18.9858 16.445 19.0235C16.2643 19.0802 16.0654 19.1085 15.8485 19.1085C15.4689 19.1085 15.1797 19.033 14.9809 18.882C14.782 18.7121 14.6826 18.4479 14.6826 18.0893V11.6632ZM22.6271 11.6632H24.7962V18.9103C24.7059 18.9481 24.5612 18.9858 24.3624 19.0235C24.1816 19.0802 23.9919 19.1085 23.793 19.1085C23.3953 19.1085 23.0971 19.033 22.8982 18.882C22.7175 18.7121 22.6271 18.4479 22.6271 18.0893V11.6632ZM30.5716 11.6632H32.7407V18.9103C32.6503 18.9481 32.5057 18.9858 32.3069 19.0235C32.1261 19.0802 31.9363 19.1085 31.7375 19.1085C31.3398 19.1085 31.0416 19.033 30.8427 18.882C30.662 18.7121 30.5716 18.4479 30.5716 18.0893V11.6632Z" fill="#E69270"/>
<path d="M5.5042 17.4101C6.7153 17.4101 7.62815 17.127 8.24274 16.5608C8.8754 15.9758 9.19174 15.2303 9.19174 14.3244C9.19174 13.5506 8.94771 12.9089 8.45965 12.3994C7.98967 11.8898 7.23951 11.4841 6.20917 11.1821L3.85023 10.446C3.09103 10.2007 2.43125 9.8893 1.87088 9.51184C1.31052 9.11552 0.876695 8.63426 0.5694 8.06808C0.280181 7.48302 0.135571 6.8036 0.135571 6.02982C0.135571 4.57661 0.641704 3.44424 1.65397 2.63271C2.66624 1.80231 4.01291 1.38711 5.694 1.38711C6.67011 1.38711 7.53777 1.50035 8.29697 1.72682C9.07424 1.93442 9.67979 2.20808 10.1136 2.54779C10.5655 2.8875 10.7915 3.24608 10.7915 3.62353C10.7915 3.86888 10.7282 4.09535 10.6017 4.30296C10.4751 4.49168 10.3125 4.64267 10.1136 4.7559C9.66172 4.37845 9.04713 4.04817 8.26985 3.76508C7.51065 3.48199 6.67915 3.34044 5.77534 3.34044C4.72692 3.34044 3.89542 3.58579 3.28083 4.07648C2.66624 4.5483 2.35894 5.19941 2.35894 6.02982C2.35894 6.69036 2.57586 7.22824 3.00968 7.64344C3.46159 8.05864 4.18464 8.41722 5.17883 8.71919L6.8328 9.22875C8.26081 9.64395 9.38154 10.2479 10.195 11.0405C11.0265 11.8332 11.4422 12.9278 11.4422 14.3244C11.4422 15.8154 10.918 17.0232 9.86959 17.948C8.83925 18.8727 7.38412 19.3351 5.5042 19.3351C4.40155 19.3351 3.43447 19.2125 2.60297 18.9671C1.78954 18.7029 1.14784 18.3821 0.677857 18.0046C0.225952 17.6083 0 17.2214 0 16.8439C0 16.5231 0.0903809 16.2589 0.271143 16.0513C0.469981 15.8248 0.695933 15.6644 0.948999 15.57C1.36475 15.9852 1.95223 16.4004 2.71143 16.8156C3.47063 17.2119 4.40155 17.4101 5.5042 17.4101Z" fill="#E69270"/>
<path d="M158.856 28.5916C159.115 28.7596 159.147 28.9882 158.95 29.2774C158.762 29.5574 158.561 29.6227 158.347 29.4734C158.016 29.2214 157.444 28.8715 156.631 28.4236C156.309 28.2277 156.238 28.0084 156.416 27.7658C156.604 27.5138 156.85 27.4672 157.154 27.6258C157.878 27.9711 158.445 28.293 158.856 28.5916ZM158.213 32.4687C158.436 32.6087 158.454 32.8233 158.266 33.1126C158.079 33.4019 157.86 33.4625 157.609 33.2946C157.207 32.996 156.644 32.6554 155.92 32.2728C155.625 32.0955 155.572 31.8809 155.759 31.6289C155.947 31.377 156.206 31.3397 156.537 31.5169C157.323 31.9089 157.882 32.2261 158.213 32.4687ZM156.899 39.5512C156.729 39.8311 156.506 39.8498 156.229 39.6072C155.952 39.3739 155.889 39.1453 156.041 38.9213C156.667 38.0162 157.359 36.7845 158.119 35.2261C158.289 34.8902 158.494 34.8389 158.736 35.0722C158.986 35.3054 159.039 35.5667 158.896 35.856C158.28 37.1717 157.614 38.4034 156.899 39.5512ZM165.72 38.5854C165.89 38.5854 165.975 38.4967 165.975 38.3195V35.926C165.975 35.7487 165.89 35.66 165.72 35.66H161.403C161.234 35.66 161.149 35.7487 161.149 35.926V38.3195C161.149 38.4967 161.234 38.5854 161.403 38.5854H165.72ZM167.825 31.8529C167.825 32.1888 167.677 32.3568 167.382 32.3568H164.098V34.6803H166.377C166.752 34.6803 166.94 34.8762 166.94 35.2681V38.9633C166.94 39.3552 166.752 39.5512 166.377 39.5512H160.773C160.398 39.5512 160.21 39.3552 160.21 38.9633V35.2681C160.21 34.8762 160.398 34.6803 160.773 34.6803H163.133V32.3568H159.661C159.366 32.3568 159.218 32.1888 159.218 31.8529C159.218 31.5076 159.366 31.335 159.661 31.335H163.133V29.0255C162.194 29.1841 161.354 29.3008 160.612 29.3754C160.309 29.4034 160.107 29.2681 160.009 28.9695C159.92 28.6709 160.072 28.5029 160.465 28.4656C163.101 28.167 164.996 27.8031 166.149 27.3739C166.355 27.2992 166.587 27.3972 166.846 27.6678C167.114 27.9384 167.123 28.1157 166.873 28.1997C166.247 28.4236 165.322 28.6476 164.098 28.8715V31.335H167.382C167.677 31.335 167.825 31.5076 167.825 31.8529Z" fill="#B6B6B6"/>
<path d="M148.788 38.5433H153.775C154.07 38.5433 154.218 38.7112 154.218 39.0472C154.218 39.3831 154.07 39.5511 153.775 39.5511H142.782C142.487 39.5511 142.34 39.3831 142.34 39.0472C142.34 38.7112 142.487 38.5433 142.782 38.5433H147.769V34.9881H144.23C143.935 34.9881 143.788 34.8201 143.788 34.4842C143.788 34.1482 143.935 33.9803 144.23 33.9803H147.769V30.929H144.619C144.181 31.8248 143.797 32.4779 143.466 32.8885C143.305 33.1031 143.073 33.1078 142.769 32.9025C142.465 32.6972 142.393 32.4966 142.554 32.3007C143.457 31.3022 144.15 29.8745 144.632 28.0176C144.74 27.635 144.959 27.481 145.289 27.5557C145.629 27.6303 145.754 27.8123 145.665 28.1016L145.048 29.9072H147.769V27.6817C147.769 27.3737 147.939 27.2198 148.279 27.2198C148.618 27.2198 148.788 27.3737 148.788 27.6817V29.9072H153.145C153.44 29.9072 153.588 30.0798 153.588 30.4251C153.588 30.761 153.44 30.929 153.145 30.929H148.788V33.9803H152.649C152.944 33.9803 153.092 34.1482 153.092 34.4842C153.092 34.8201 152.944 34.9881 152.649 34.9881H148.788V38.5433Z" fill="#B6B6B6"/>
<path d="M135.154 30.6629H137.38L138.037 29.2212H135.061C135.329 29.6784 135.454 29.9444 135.436 30.019C135.552 30.355 135.458 30.5696 135.154 30.6629ZM137.514 35.8697C137.684 35.8697 137.769 35.7811 137.769 35.6038V35.0719C137.769 34.8946 137.684 34.806 137.514 34.806H135.919C135.749 34.806 135.664 34.8946 135.664 35.0719V35.6038C135.664 35.7811 135.749 35.8697 135.919 35.8697H137.514ZM134.404 29.9071C134.261 29.5338 134.341 29.3052 134.645 29.2212H132.822C132.527 29.2212 132.379 29.0812 132.379 28.8013C132.379 28.5214 132.527 28.3814 132.822 28.3814H136.053L135.717 27.8215C135.565 27.5696 135.619 27.3923 135.878 27.2896C136.146 27.1777 136.361 27.2476 136.522 27.4996L137.071 28.3814H140.369C140.664 28.3814 140.812 28.5214 140.812 28.8013C140.812 29.0812 140.664 29.2212 140.369 29.2212H138.68C138.904 29.2865 138.962 29.4218 138.854 29.6271L138.305 30.6629H139.779C140.155 30.6629 140.343 30.8588 140.343 31.2508L140.249 37.3954C140.195 37.526 140.061 37.6427 139.847 37.7453C139.641 37.8386 139.306 37.8853 138.841 37.8853C138.421 37.8853 138.162 37.736 138.063 37.4374C137.965 37.1295 138.055 36.9848 138.332 37.0035C138.457 37.0035 138.752 37.0035 139.216 37.0035C139.35 36.9942 139.418 36.9195 139.418 36.7795V31.7546C139.418 31.5774 139.333 31.4887 139.163 31.4887H137.085V32.4405H138.64C138.935 32.4405 139.082 32.5618 139.082 32.8044C139.082 33.0377 138.935 33.1543 138.64 33.1543H137.085V34.1481H137.943C138.318 34.1481 138.506 34.3441 138.506 34.736V35.9397C138.506 36.3316 138.318 36.5276 137.943 36.5276H135.49C135.114 36.5276 134.926 36.3316 134.926 35.9397V34.736C134.926 34.3441 135.114 34.1481 135.49 34.1481H136.321V33.1543H134.752C134.457 33.1543 134.31 33.0377 134.31 32.8044C134.31 32.5618 134.457 32.4405 134.752 32.4405H136.321V31.4887H134.229C134.06 31.4887 133.975 31.5774 133.975 31.7546V37.4794C133.975 37.7873 133.823 37.9413 133.519 37.9413C133.215 37.9413 133.063 37.7873 133.063 37.4794V31.2508C133.063 30.8588 133.251 30.6629 133.626 30.6629H134.712L134.404 29.9071ZM131.481 29.0112C131.669 29.2445 131.633 29.4545 131.374 29.6411C131.124 29.8277 130.909 29.7997 130.73 29.5571L129.591 28.0455C129.412 27.8122 129.443 27.6209 129.685 27.4716C129.935 27.313 130.154 27.3503 130.342 27.5836L131.481 29.0112ZM130.234 33.7142C130.145 33.8262 130.185 33.8868 130.355 33.8962L131.709 34.0082C132.093 34.0361 132.245 34.2648 132.165 34.694C132.066 35.4498 131.816 36.2897 131.414 37.2135C131.825 37.8853 132.415 38.3285 133.184 38.5432C133.961 38.7578 135.105 38.8651 136.616 38.8651C138.126 38.8651 139.476 38.8184 140.664 38.7251C140.959 38.6971 141.049 38.8464 140.932 39.173C140.825 39.5089 140.629 39.6816 140.343 39.6909C139.297 39.7562 138.014 39.7889 136.495 39.7889C134.985 39.7889 133.818 39.6676 132.996 39.425C132.174 39.1824 131.512 38.7065 131.012 37.9973C130.52 38.8558 130.042 39.4436 129.577 39.7609C129.354 39.9382 129.131 39.9055 128.907 39.6629C128.693 39.4296 128.697 39.229 128.921 39.061C130.047 38.3239 130.802 36.9988 131.186 35.0859C131.24 34.8526 131.182 34.736 131.012 34.736H129.805C129.385 34.736 129.224 34.75 129.323 34.778C129.117 34.8806 128.952 34.7733 128.827 34.4561C128.71 34.1388 128.786 33.9195 129.055 33.7982L129.296 33.5742C129.573 33.2943 130.056 32.6458 130.744 31.6287C130.896 31.4047 130.887 31.2927 130.717 31.2927H129.269C128.974 31.2927 128.827 31.1528 128.827 30.8728C128.827 30.5836 128.974 30.4389 129.269 30.4389L131.334 30.369C131.629 30.369 131.883 30.4249 132.098 30.5369C132.321 30.6396 132.321 30.8495 132.098 31.1668C131.365 32.2305 130.744 33.0797 130.234 33.7142Z" fill="#B6B6B6"/>
<path d="M121.225 29.9352C121.395 30.1125 121.382 30.3364 121.185 30.607C120.997 30.8776 120.819 30.915 120.649 30.719C120.238 30.1685 119.487 29.4779 118.397 28.6475C117.628 29.7019 116.855 30.4997 116.077 31.0409C115.845 31.2089 115.644 31.1389 115.474 30.831C115.313 30.5137 115.353 30.2758 115.595 30.1171C115.961 29.8932 116.417 29.4966 116.962 28.9274C117.516 28.3582 117.883 27.8916 118.061 27.5277C118.213 27.2758 118.428 27.2058 118.705 27.3177C118.991 27.4204 119.058 27.6023 118.906 27.8636L118.879 27.9056C120.014 28.7361 120.796 29.4126 121.225 29.9352ZM119.683 38.6413C119.853 38.6413 119.938 38.5526 119.938 38.3753V36.4157C119.938 36.2385 119.853 36.1498 119.683 36.1498H117.311C117.141 36.1498 117.056 36.2385 117.056 36.4157V38.3753C117.056 38.5526 117.141 38.6413 117.311 38.6413H119.683ZM118.973 31.5728V32.9445H120.729C121.024 32.9445 121.172 33.0938 121.172 33.3924C121.172 33.6817 121.024 33.8263 120.729 33.8263H118.973V35.268H120.327C120.702 35.268 120.89 35.464 120.89 35.8559V38.9352C120.89 39.3271 120.702 39.5231 120.327 39.5231H116.694C116.319 39.5231 116.131 39.3271 116.131 38.9352V35.8559C116.131 35.464 116.319 35.268 116.694 35.268H118.035V33.8263H116.225C115.93 33.8263 115.782 33.6817 115.782 33.3924C115.782 33.0938 115.93 32.9445 116.225 32.9445H118.035V31.5728H117.056C116.761 31.5728 116.613 31.4282 116.613 31.1389C116.613 30.8403 116.761 30.691 117.056 30.691H119.858C120.153 30.691 120.3 30.8403 120.3 31.1389C120.3 31.4282 120.153 31.5728 119.858 31.5728H118.973ZM125.247 32.2447L126.789 32.3566C127.28 32.3846 127.396 32.7532 127.137 33.4624C126.896 34.1809 126.69 34.6895 126.521 34.9881C126.449 35.1467 126.279 35.1934 126.011 35.128C125.743 35.0534 125.663 34.8761 125.77 34.5961L126.226 33.4344C126.288 33.2758 126.235 33.1965 126.065 33.1965H124.764L124.657 39.4951C124.595 39.6444 124.474 39.7563 124.295 39.831C124.045 39.9523 123.665 40.0083 123.156 39.999C122.736 40.0083 122.476 39.8497 122.378 39.5231C122.289 39.2058 122.338 39.0472 122.526 39.0472C122.543 39.0565 122.896 39.0612 123.585 39.0612C123.674 39.0518 123.732 39.0332 123.759 39.0052C123.795 38.9772 123.813 38.9212 123.813 38.8372V33.1965H121.815C121.52 33.1965 121.373 33.0378 121.373 32.7206C121.373 32.4033 121.52 32.2447 121.815 32.2447H124.751C124.036 31.4422 123.281 30.803 122.485 30.3271C122.217 30.1498 122.195 29.9678 122.418 29.7812C122.642 29.5852 122.829 29.5386 122.981 29.6412C123.053 29.6692 123.428 29.9212 124.108 30.3971C124.59 29.9772 125.015 29.5153 125.381 29.0114C125.506 28.8527 125.484 28.7734 125.314 28.7734H122.244C121.949 28.7734 121.802 28.6195 121.802 28.3115C121.802 27.9943 121.949 27.8356 122.244 27.8356L126.011 27.7796C126.306 27.7796 126.556 27.859 126.762 28.0176C126.967 28.1669 126.981 28.3768 126.802 28.6475C126.311 29.4406 125.627 30.2011 124.751 30.929C125.18 31.3115 125.386 31.5122 125.368 31.5308C125.573 31.7641 125.533 32.0021 125.247 32.2447Z" fill="#B6B6B6"/>
<path d="M109.348 29.879H107.377C107.109 30.3736 106.872 30.7375 106.666 30.9708C106.479 31.2134 106.246 31.2507 105.969 31.0828C105.701 30.9148 105.661 30.7282 105.849 30.5229C106.492 29.8604 106.97 29.0019 107.283 27.9474C107.399 27.5835 107.609 27.4389 107.913 27.5135C108.217 27.5882 108.315 27.7655 108.208 28.0454L107.846 28.9692H109.348V27.6955C109.348 27.3876 109.508 27.2336 109.83 27.2336C110.161 27.2336 110.326 27.3876 110.326 27.6955V28.9692H112.9C113.195 28.9692 113.343 29.1232 113.343 29.4311C113.343 29.7297 113.195 29.879 112.9 29.879H110.326V31.6566H113.436C113.731 31.6566 113.879 31.8106 113.879 32.1185C113.879 32.4171 113.731 32.5664 113.436 32.5664H106.063C105.768 32.5664 105.621 32.4171 105.621 32.1185C105.621 31.8106 105.768 31.6566 106.063 31.6566H109.348V29.879ZM107.886 34.526C107.716 34.526 107.632 34.6146 107.632 34.7919V36.5136C107.632 36.6909 107.716 36.7795 107.886 36.7795H111.747C111.917 36.7795 112.002 36.6909 112.002 36.5136V34.7919C112.002 34.6146 111.917 34.526 111.747 34.526H107.886ZM112.981 37.0454C112.981 37.4374 112.793 37.6333 112.418 37.6333H107.243C106.867 37.6333 106.68 37.4374 106.68 37.0454V34.2461C106.68 33.8541 106.867 33.6582 107.243 33.6582H112.418C112.793 33.6582 112.981 33.8541 112.981 34.2461V37.0454ZM104.669 29.0252C104.856 29.2585 104.821 29.4684 104.562 29.6551C104.311 29.8417 104.097 29.8137 103.918 29.5711L102.765 28.0594C102.586 27.8261 102.618 27.6348 102.859 27.4855C103.109 27.3269 103.328 27.3642 103.516 27.5975L104.669 29.0252ZM104.481 33.8541C104.776 33.8541 105.004 33.8868 105.165 33.9521C105.335 34.0174 105.388 34.2227 105.326 34.568C105.192 35.4451 104.937 36.3129 104.562 37.1714C104.973 37.8526 105.567 38.3052 106.345 38.5291C107.131 38.7531 108.28 38.865 109.79 38.865C111.3 38.865 112.65 38.8184 113.839 38.7251C114.134 38.6971 114.227 38.8464 114.12 39.173C114.013 39.5089 113.821 39.6815 113.544 39.6909C112.489 39.7562 111.198 39.7888 109.669 39.7888C108.15 39.7888 106.979 39.6629 106.157 39.4109C105.335 39.1683 104.678 38.6831 104.186 37.9552C103.704 38.8231 103.225 39.4203 102.752 39.7469C102.528 39.9335 102.305 39.9055 102.081 39.6629C101.867 39.4296 101.871 39.229 102.095 39.061C103.203 38.3238 103.94 36.9988 104.307 35.0859C104.36 34.8526 104.302 34.736 104.133 34.736H102.98L102.524 34.7779C102.309 34.8806 102.14 34.7779 102.014 34.47C101.889 34.1527 101.961 33.9288 102.229 33.7982L102.457 33.5742C102.761 33.2476 103.23 32.5991 103.864 31.6286C104.007 31.4047 103.994 31.2927 103.824 31.2927H102.457C102.162 31.2927 102.014 31.1527 102.014 30.8728C102.014 30.5835 102.162 30.4389 102.457 30.4389H104.682L104.722 30.4249C105.017 30.3596 105.218 30.3829 105.326 30.4949C105.442 30.6069 105.388 30.8308 105.165 31.1667C104.414 32.3145 103.815 33.1683 103.368 33.7282C103.288 33.8308 103.333 33.8821 103.502 33.8821L104.481 33.8541Z" fill="#B6B6B6"/>
<path d="M88.6485 35.0999C88.5502 34.7453 88.6395 34.5307 88.9166 34.456L90.6192 33.9941V31.0128H89.0641C88.7691 31.0128 88.6217 30.8495 88.6217 30.5229C88.6217 30.187 88.7691 30.019 89.0641 30.019H90.6192V27.6955C90.6192 27.3876 90.7801 27.2336 91.1018 27.2336C91.4325 27.2336 91.5978 27.3876 91.5978 27.6955V30.019H93.0055C93.3004 30.019 93.4479 30.187 93.4479 30.5229C93.4479 30.8495 93.3004 31.0128 93.0055 31.0128H91.5978V33.6862L93.0457 33.2523C93.3228 33.1776 93.4792 33.3036 93.5149 33.6302C93.5596 33.9475 93.4434 34.1481 93.1664 34.2321L91.5978 34.736L91.4906 39.285C91.4191 39.4436 91.2761 39.5742 91.0616 39.6769C90.8471 39.7888 90.4717 39.8402 89.9355 39.8308C89.5065 39.8402 89.2384 39.6815 89.1311 39.3549C89.0239 39.0283 89.1088 38.8697 89.3858 38.879C89.5378 38.879 89.8595 38.879 90.3511 38.879C90.5298 38.879 90.6192 38.7857 90.6192 38.5991V35.0579L89.2115 35.4918C88.9345 35.5758 88.7468 35.4451 88.6485 35.0999ZM100.312 28.3953C100.607 28.3953 100.754 28.568 100.754 28.9132C100.754 29.2492 100.607 29.4171 100.312 29.4171H98.3813V38.4731C98.3813 38.8371 98.3322 39.1123 98.2339 39.299C98.1356 39.4856 97.9657 39.6209 97.7244 39.7049C97.3759 39.8448 96.7368 39.9102 95.8074 39.9008C95.3694 39.9102 95.079 39.7282 94.936 39.3549C94.8019 38.9817 94.9538 38.8044 95.3918 38.8231C96.1246 38.8511 96.6296 38.8557 96.9067 38.8371C97.1927 38.8184 97.3357 38.6924 97.3357 38.4591V29.4171H93.9573C93.6624 29.4171 93.5149 29.2492 93.5149 28.9132C93.5149 28.568 93.6624 28.3953 93.9573 28.3953H100.312Z" fill="#B6B6B6"/>
<path d="M154.782 11.8895C155.718 11.8895 156.477 11.0973 156.477 10.1202C156.477 9.14299 155.718 8.35084 154.782 8.35084C153.846 8.35084 153.087 9.14299 153.087 10.1202C153.087 11.0973 153.846 11.8895 154.782 11.8895Z" fill="#E69270"/>
<path d="M157.832 9.05856C158.768 9.05856 159.527 8.26641 159.527 7.28924C159.527 6.31207 158.768 5.51992 157.832 5.51992C156.896 5.51992 156.138 6.31207 156.138 7.28924C156.138 8.26641 156.896 9.05856 157.832 9.05856Z" fill="#E69270"/>
<path d="M161.899 9.05856C162.835 9.05856 163.594 8.26641 163.594 7.28924C163.594 6.31207 162.835 5.51992 161.899 5.51992C160.963 5.51992 160.205 6.31207 160.205 7.28924C160.205 8.26641 160.963 9.05856 161.899 9.05856Z" fill="#E69270"/>
<path d="M164.95 11.8895C165.885 11.8895 166.644 11.0973 166.644 10.1202C166.644 9.14299 165.885 8.35084 164.95 8.35084C164.014 8.35084 163.255 9.14299 163.255 10.1202C163.255 11.0973 164.014 11.8895 164.95 11.8895Z" fill="#E69270"/>
<path d="M163.485 13.9136C162.896 13.1917 162.401 12.576 161.804 11.8541C161.493 11.4719 161.093 11.0897 160.618 10.9199C160.544 10.8916 160.469 10.8704 160.394 10.8562C160.225 10.8279 160.042 10.8279 159.866 10.8279C159.689 10.8279 159.506 10.8279 159.33 10.8633C159.256 10.8774 159.181 10.8987 159.107 10.927C158.632 11.0968 158.239 11.479 157.92 11.8612C157.331 12.5831 156.836 13.1988 156.239 13.9207C155.351 14.8478 154.26 15.874 154.463 17.3107C154.66 18.0326 155.155 18.7474 156.043 18.9526C156.537 19.0588 158.117 18.6412 159.798 18.6412H159.92C161.601 18.6412 163.18 19.0517 163.675 18.9526C164.563 18.7474 165.058 18.0255 165.255 17.3107C165.465 15.8669 164.373 14.8407 163.485 13.9136Z" fill="#E69270"/>
<path d="M31.9561 34.0247H85.6018" stroke="#B6B6B6"/>
</svg>
